# xmcd CD database file generated by Grip 3.2.0
# 
# Track frame offsets:
#       182
#       17777
#       33585
#       56197
#       73552
#       89305
#       109725
#       122130
#       137770
#       157727
#       174452
#       191242
#       208857
#       224185
#       234822
#       250835
# 
# Disc length: 3572 seconds
# 
# Revision: 1
# Processed by: cddbd v1.5.1PL0 Copyright (c) Steve Scherf et al.
# Submitted via: Grip 3.2.0
# 
DISCID=eb0df210
DTITLE=Various Artist - Wings Of A Dove
DYEAR=2000
DGENRE=Country
TTITLE0=Tim McGraw - Somebody Must Be Prayin' For Me
TTITLE1=LeAnn Rimes - I Need You
TTITLE2=Lyle Lovett - Pass Me Not Oh Gentle Savior
TTITLE3=JoDee Messina - Because You Love Me
TTITLE4=David Kersh - I Pray For You
TTITLE5=Steve Holy - Just Like The Moon
TTITLE6=Sawyer Brown - 800 Pound Jesus
TTITLE7=Hal Ketchum - Loving You Makes Me A Better Man
TTITLE8=Keith Perry - Over My Head
TTITLE9=Jim Witter - On The Wings Of A Dove
TTITLE10=Lesley McDaniel - Backslider's Prayer
TTITLE11=Jeff Carson - Scars And All
TTITLE12=Shane McAnally - All Things Beautiful
TTITLE13=Wynonna - Live With Jesus
TTITLE14=Ken Mellons - I'm Not Homeless
TTITLE15=Mark Miller - Building A True Believer
EXTD=
EXTT0=
EXTT1=
EXTT2=
EXTT3=
EXTT4=
EXTT5=
EXTT6=
EXTT7=
EXTT8=
EXTT9=
EXTT10=
EXTT11=
EXTT12=
EXTT13=
EXTT14=
EXTT15=
PLAYORDER=
